<svg width="172" height="18" viewBox="0 0 172 18" xmlns="http://www.w3.org/2000/svg"><g fill="#D22439"><path d="M.143 17.886l.657-2.6h4.857C6.43 15.286 7 15.2 7.4 15c.4-.2.629-.486.743-.857L11.657.229H15l-3.514 13.914a4.845 4.845 0 01-.686 1.514c-.314.457-.743.857-1.286 1.2-.543.343-1.171.6-1.914.772-.743.171-1.6.285-2.571.285H.143v-.028zm137-15.057H148.8c1.486 0 2.057.542 1.8 1.628l-.343 1.314c-.028.115-.057.2-.086.286h3.343c.029-.114.057-.2.086-.314l.314-1.257c.172-.629.2-1.2.143-1.743a2.355 2.355 0 00-.628-1.343c-.343-.371-.858-.657-1.486-.886-.657-.2-1.486-.314-2.486-.314h-15l-1.486 5.829h3.343l.829-3.2zM130 17.886h3.343l1.743-6.943h-3.343zm16.771 0h3.572l-1.886-6.943h-3.571z"/><path d="M160.314 5.657s-4.4 1.6-4.428 1.6h-44.057l-.6 2.629H156l4.314 1.743 11.257-2.972-11.257-3zm-29.343-2.828L131.63.2h-18.172l-.657 2.629h3.343zM109 17.886h18.171l.658-2.629h-18.172zM27.486 3.657l1.371 3.572h3.572L29.543.2h-2.429l-6.457 7.029h3.572zm2.457 6.314L33 17.886h3.743l-3.2-7.915zm-19.029 7.915h3.715l7.114-7.915h-3.6zm92.686 0h3.771l-3.228-7.915h-3.6zm-22.086 0h3.715L92.37 9.97h-3.6zM98.086 3.657l1.4 3.572h3.543L100.17.2h-2.428l-6.457 7.029h3.571zm-54.057.372c.2-.8 1.285-1.2 3.257-1.2h13.828l.657-2.6H47.943c-4.2 0-6.629 1.257-7.257 3.8l-2.543 10.028c-.657 2.543 1.143 3.8 5.343 3.8h7.8c4.2 0 6.628-1.257 7.257-3.771L59.57 9.97l.715-2.742h-8.372l-.657 2.742H56.2l-1.057 4.115c-.2.771-1.286 1.143-3.257 1.143h-7.8c-1.972 0-2.857-.4-2.657-1.2l2.6-10zm23.342 0c.2-.8 1.286-1.2 3.258-1.2h13.828l.657-2.6H71.286c-4.2 0-6.629 1.257-7.257 3.8l-2.543 10.028c-.657 2.543 1.143 3.8 5.343 3.8h7.8c4.2 0 6.628-1.257 7.257-3.771l1.028-4.115.715-2.742h-8.372L74.6 9.97h4.943l-1.057 4.115c-.2.771-1.286 1.143-3.257 1.143h-7.8c-1.972 0-2.858-.4-2.658-1.2l2.6-10z"/></g></svg>